<svg id="visual" viewBox="0 0 900 900" width="900" height="900" xmlns="http://www.w3.org/2000/svg" xmlns:xlink="http://www.w3.org/1999/xlink" version="1.1"><g transform="translate(84.3359221146039 -65.05441694943107)"><path d="M216.8 -327.7C271.3 -258.7 299.2 -182.5 312.2 -109.3C325.1 -36.1 323 34.1 332.7 140.1C342.3 246.2 363.7 388 310.2 483.2C256.7 578.3 128.3 626.6 20.8 598.1C-86.8 569.5 -173.6 463.9 -237.3 372.1C-301 280.3 -341.7 202.3 -397.7 110.3C-453.7 18.2 -525 -87.8 -512.3 -178.7C-499.6 -269.7 -402.9 -345.6 -303.5 -400C-204.2 -454.3 -102.1 -487.2 -10.5 -472.7C81.1 -458.3 162.2 -396.6 216.8 -327.7" fill="#9505b4"></path></g></svg>